<?xml version="1.0" encoding="UTF-8"?>
<svg xmlns="http://www.w3.org/2000/svg" width="1048.00" height="736.00" viewBox="0 0 1048.00 736.00">
<defs>
  <filter id="shadow" x="-10%" y="-10%" width="120%" height="130%">
    <feDropShadow dx="0" dy="12" stdDeviation="16" flood-opacity="0.5"/>
  </filter>
  <clipPath id="titleClip"><rect x="0" y="0" width="1048.00" height="28.00"/></clipPath>
</defs>
<rect x="0" y="0" width="1048.00" height="736.00" fill="#171717" rx="10" ry="10" filter="url(#shadow)"/>
<g clip-path="url(#titleClip)"><rect x="0" y="0" width="1048.00" height="38.00" fill="#2a2a2a" rx="10" ry="10"/></g>
<line x1="0" y1="28.00" x2="1048.00" y2="28.00" stroke="#1a1a1a" stroke-width="1"/>
<circle cx="20.00" cy="14.00" r="6.00" fill="#ff5f57" stroke="rgba(0,0,0,0.2)" stroke-width="0.5"/>
<circle cx="40.00" cy="14.00" r="6.00" fill="#febc2e" stroke="rgba(0,0,0,0.2)" stroke-width="0.5"/>
<circle cx="60.00" cy="14.00" r="6.00" fill="#28c840" stroke="rgba(0,0,0,0.2)" stroke-width="0.5"/>
<text x="524.00" y="18.00" fill="#c0c0c0" font-family="-apple-system, BlinkMacSystemFont, 'SF Pro Text', 'Helvetica Neue', Helvetica, Arial, sans-serif" font-size="12px" font-weight="600" text-anchor="middle">lnav</text>
<rect x="20.00" y="44.00" width="1008.00" height="672.00" fill="#011627"/>
<g font-family="JetBrains Mono, JetBrainsMono Nerd Font, Menlo, Monaco, Consolas, DejaVu Sans Mono, monospace" font-size="14.0px">
<rect x="20.00" y="44.00" width="1008.00" height="17.30" fill="#0f1f2b"/>
<rect x="20.00" y="60.80" width="58.80" height="17.30" fill="#2d5a80"/>
<rect x="78.80" y="60.80" width="949.20" height="17.30" fill="#162d40"/>
<rect x="20.00" y="77.60" width="999.60" height="17.30" fill="#162d40"/>
<rect x="1019.60" y="77.60" width="8.40" height="17.30" fill="#d6deeb"/>
<rect x="1019.60" y="94.40" width="8.40" height="17.30" fill="#d6deeb"/>
<rect x="1019.60" y="111.20" width="8.40" height="17.30" fill="#d6deeb"/>
<rect x="1019.60" y="128.00" width="8.40" height="17.30" fill="#d6deeb"/>
<rect x="20.00" y="144.80" width="999.60" height="17.30" fill="#28505d"/>
<rect x="1019.60" y="144.80" width="8.40" height="17.30" fill="#d6deeb"/>
<rect x="1019.60" y="161.60" width="8.40" height="17.30" fill="#d6deeb"/>
<rect x="1019.60" y="178.40" width="8.40" height="17.30" fill="#d6deeb"/>
<rect x="1019.60" y="195.20" width="8.40" height="17.30" fill="#d6deeb"/>
<rect x="1019.60" y="212.00" width="8.40" height="17.30" fill="#d6deeb"/>
<rect x="1019.60" y="228.80" width="8.40" height="17.30" fill="#d6deeb"/>
<rect x="1019.60" y="245.60" width="8.40" height="17.30" fill="#d6deeb"/>
<rect x="1019.60" y="262.40" width="8.40" height="17.30" fill="#d6deeb"/>
<rect x="1019.60" y="279.20" width="8.40" height="17.30" fill="#d6deeb"/>
<rect x="1019.60" y="296.00" width="8.40" height="17.30" fill="#d6deeb"/>
<rect x="1019.60" y="312.80" width="8.40" height="17.30" fill="#d6deeb"/>
<rect x="1019.60" y="329.60" width="8.40" height="17.30" fill="#d6deeb"/>
<rect x="1019.60" y="346.40" width="8.40" height="17.30" fill="#d6deeb"/>
<rect x="1019.60" y="363.20" width="8.40" height="17.30" fill="#d6deeb"/>
<rect x="1019.60" y="380.00" width="8.40" height="17.30" fill="#d6deeb"/>
<rect x="1019.60" y="396.80" width="8.40" height="17.30" fill="#d6deeb"/>
<rect x="1019.60" y="413.60" width="8.40" height="17.30" fill="#d6deeb"/>
<rect x="1019.60" y="430.40" width="8.40" height="17.30" fill="#d6deeb"/>
<rect x="1019.60" y="447.20" width="8.40" height="17.30" fill="#d6deeb"/>
<rect x="1019.60" y="464.00" width="8.40" height="17.30" fill="#d6deeb"/>
<rect x="1019.60" y="480.80" width="8.40" height="17.30" fill="#d6deeb"/>
<rect x="1019.60" y="497.60" width="8.40" height="17.30" fill="#d6deeb"/>
<rect x="1019.60" y="514.40" width="8.40" height="17.30" fill="#d6deeb"/>
<rect x="1019.60" y="531.20" width="8.40" height="17.30" fill="#d6deeb"/>
<rect x="1019.60" y="548.00" width="8.40" height="17.30" fill="#d6deeb"/>
<rect x="1019.60" y="564.80" width="8.40" height="17.30" fill="#d6deeb"/>
<rect x="1019.60" y="581.60" width="8.40" height="17.30" fill="#d6deeb"/>
<rect x="1019.60" y="598.40" width="8.40" height="17.30" fill="#d6deeb"/>
<rect x="1019.60" y="615.20" width="8.40" height="17.30" fill="#d6deeb"/>
<rect x="1019.60" y="632.00" width="8.40" height="17.30" fill="#d6deeb"/>
<rect x="1019.60" y="648.80" width="8.40" height="17.30" fill="#d6deeb"/>
<rect x="20.00" y="665.60" width="1008.00" height="17.30" fill="#0f1f2b"/>
<rect x="20.00" y="682.40" width="1008.00" height="17.30" fill="#162d40"/>
<line x1="24.20" y1="111.20" x2="24.20" y2="161.60" stroke="#87ff00" stroke-width="1"/>
<line x1="1023.80" y1="77.60" x2="1023.80" y2="665.60" stroke="#011627" stroke-width="1"/>
<line x1="742.40" y1="57.58" x2="750.80" y2="57.58" stroke="#2d5a80" stroke-width="1"/>
<line x1="20.00" y1="91.18" x2="1019.60" y2="91.18" stroke="#f8f8f0" stroke-width="1"/>
<line x1="927.20" y1="679.18" x2="952.40" y2="679.18" stroke="#f0f0f0" stroke-width="1"/>
<text x="20.00" y="55.90" fill="#f0f0f0" xml:space="preserve" textLength="714.00" lengthAdjust="spacing"> 2026-04-12T21:24:23 PDT                                                        Press</text>
<text x="742.40" y="55.90" fill="#2d5a80" xml:space="preserve" textLength="8.40" lengthAdjust="spacing" font-weight="bold">`</text>
<text x="750.80" y="55.90" fill="#f0f0f0" xml:space="preserve" textLength="260.40" lengthAdjust="spacing"> to focus on the breadcrumb bar</text>
<text x="20.00" y="72.70" fill="#f8f0f0" xml:space="preserve" textLength="50.40" lengthAdjust="spacing" font-weight="bold"> LOG ▼</text>
<text x="78.80" y="72.70" fill="#2d5a80" xml:space="preserve" textLength="16.80" lengthAdjust="spacing" font-weight="bold"> ：</text>
<text x="104.00" y="72.70" fill="#f8f8f0" xml:space="preserve" textLength="218.40" lengthAdjust="spacing">2015-03-12T23:16:52.071000</text>
<text x="322.40" y="72.70" fill="#2d5a80" xml:space="preserve" textLength="16.80" lengthAdjust="spacing" font-weight="bold"> ：</text>
<text x="347.60" y="72.70" fill="#f8f8f0" xml:space="preserve" textLength="92.40" lengthAdjust="spacing">generic_log</text>
<text x="440.00" y="72.70" fill="#2d5a80" xml:space="preserve" textLength="16.80" lengthAdjust="spacing" font-weight="bold"> ：</text>
<text x="465.20" y="72.70" fill="#f8f8f0" xml:space="preserve" textLength="142.80" lengthAdjust="spacing">logfile_vami.0[0]</text>
<text x="608.00" y="72.70" fill="#2d5a80" xml:space="preserve" textLength="16.80" lengthAdjust="spacing" font-weight="bold"> ：</text>
<text x="633.20" y="72.70" fill="#d6deeb" xml:space="preserve" textLength="8.40" lengthAdjust="spacing">🧵</text>
<text x="658.40" y="72.70" fill="#cdcd00" xml:space="preserve" textLength="8.40" lengthAdjust="spacing" font-weight="bold">⋯</text>
<text x="666.80" y="72.70" fill="#2d5a80" xml:space="preserve" textLength="16.80" lengthAdjust="spacing" font-weight="bold"> ：</text>
<text x="692.00" y="72.70" fill="#cdcd00" xml:space="preserve" textLength="8.40" lengthAdjust="spacing" font-weight="bold">⋯</text>
<text x="700.40" y="72.70" fill="#2d5a80" xml:space="preserve" textLength="16.80" lengthAdjust="spacing" font-weight="bold"> ：</text>
<text x="725.60" y="72.70" fill="#f8f8f0" xml:space="preserve" textLength="8.40" lengthAdjust="spacing">⋯</text>
<text x="734.00" y="72.70" fill="#2d5a80" xml:space="preserve" textLength="16.80" lengthAdjust="spacing" font-weight="bold"> ：</text>
<text x="20.00" y="89.50" fill="#f8f8f0" xml:space="preserve" textLength="193.20" lengthAdjust="spacing" font-style="italic"> No messages above here</text>
<text x="20.00" y="106.30" fill="#87ff00" xml:space="preserve" textLength="8.40" lengthAdjust="spacing">┌</text>
<text x="28.40" y="106.30" fill="#d6deeb" xml:space="preserve" textLength="403.20" lengthAdjust="spacing">2015-03-12T23:16:52.071:INFO:com.root:Response :</text>
<text x="28.40" y="123.10" fill="#d6deeb" xml:space="preserve" textLength="16.80" lengthAdjust="spacing"> &lt;</text>
<text x="45.20" y="123.10" fill="#afff00" xml:space="preserve" textLength="33.60" lengthAdjust="spacing">?xml</text>
<text x="87.20" y="123.10" fill="#addb67" xml:space="preserve" textLength="58.80" lengthAdjust="spacing">version</text>
<text x="146.00" y="123.10" fill="#d6deeb" xml:space="preserve" textLength="8.40" lengthAdjust="spacing">=</text>
<text x="154.40" y="123.10" fill="#ecc48d" xml:space="preserve" textLength="42.00" lengthAdjust="spacing" font-weight="bold">&quot;1.0&quot;</text>
<text x="196.40" y="123.10" fill="#d6deeb" xml:space="preserve" textLength="16.80" lengthAdjust="spacing">?&gt;</text>
<text x="28.40" y="139.90" fill="#d6deeb" xml:space="preserve" textLength="8.40" lengthAdjust="spacing">&lt;</text>
<text x="36.80" y="139.90" fill="#87d700" xml:space="preserve" textLength="67.20" lengthAdjust="spacing">response</text>
<text x="104.00" y="139.90" fill="#d6deeb" xml:space="preserve" textLength="16.80" lengthAdjust="spacing">&gt;&lt;</text>
<text x="120.80" y="139.90" fill="#5fd75f" xml:space="preserve" textLength="50.40" lengthAdjust="spacing">locale</text>
<text x="171.20" y="139.90" fill="#d6deeb" xml:space="preserve" textLength="67.20" lengthAdjust="spacing">&gt;en-US&lt;/</text>
<text x="238.40" y="139.90" fill="#5fd75f" xml:space="preserve" textLength="50.40" lengthAdjust="spacing">locale</text>
<text x="288.80" y="139.90" fill="#d6deeb" xml:space="preserve" textLength="16.80" lengthAdjust="spacing">&gt;&lt;</text>
<text x="305.60" y="139.90" fill="#00d700" xml:space="preserve" textLength="75.60" lengthAdjust="spacing">requestid</text>
<text x="381.20" y="139.90" fill="#d6deeb" xml:space="preserve" textLength="75.60" lengthAdjust="spacing">&gt;ipInfo&lt;/</text>
<text x="456.80" y="139.90" fill="#00d700" xml:space="preserve" textLength="75.60" lengthAdjust="spacing">requestid</text>
<text x="532.40" y="139.90" fill="#d6deeb" xml:space="preserve" textLength="16.80" lengthAdjust="spacing">&gt;&lt;</text>
<text x="549.20" y="139.90" fill="#87ffaf" xml:space="preserve" textLength="42.00" lengthAdjust="spacing">value</text>
<text x="599.60" y="139.90" fill="#addb67" xml:space="preserve" textLength="16.80" lengthAdjust="spacing">id</text>
<text x="616.40" y="139.90" fill="#d6deeb" xml:space="preserve" textLength="8.40" lengthAdjust="spacing">=</text>
<text x="624.80" y="139.90" fill="#ecc48d" xml:space="preserve" textLength="109.20" lengthAdjust="spacing" font-weight="bold">&quot;ipv4Gateway&quot;</text>
<text x="742.40" y="139.90" fill="#addb67" xml:space="preserve" textLength="58.80" lengthAdjust="spacing">actions</text>
<text x="801.20" y="139.90" fill="#d6deeb" xml:space="preserve" textLength="8.40" lengthAdjust="spacing">=</text>
<text x="809.60" y="139.90" fill="#ecc48d" xml:space="preserve" textLength="75.60" lengthAdjust="spacing" font-weight="bold">&quot;enabled&quot;</text>
<text x="885.20" y="139.90" fill="#d6deeb" xml:space="preserve" textLength="8.40" lengthAdjust="spacing">&gt;</text>
<text x="893.60" y="139.90" fill="#87ff87" xml:space="preserve" textLength="117.60" lengthAdjust="spacing">198.51.100.253</text>
<text x="1011.20" y="139.90" fill="#d6deeb" xml:space="preserve" textLength="8.40" lengthAdjust="spacing">&lt;</text>
<text x="20.00" y="677.50" fill="#f0f0f0" xml:space="preserve" textLength="898.80" lengthAdjust="spacing"> Files :: Text Filters ::                                                                             Press</text>
<text x="927.20" y="677.50" fill="#f0f0f0" xml:space="preserve" textLength="25.20" lengthAdjust="spacing" font-weight="bold">TAB</text>
<text x="952.40" y="677.50" fill="#f0f0f0" xml:space="preserve" textLength="67.20" lengthAdjust="spacing"> to edit</text>
<text x="20.00" y="694.30" fill="#f8f8f0" xml:space="preserve" textLength="999.60" lengthAdjust="spacing"> L3        100%                                                                                             ?:View Help</text>
<text x="20.00" y="711.10" fill="#d6deeb" xml:space="preserve" textLength="571.20" lengthAdjust="spacing">                                                               Press</text>
<text x="599.60" y="711.10" fill="#d6deeb" xml:space="preserve" textLength="8.40" lengthAdjust="spacing" font-weight="bold">e</text>
<text x="608.00" y="711.10" fill="#d6deeb" xml:space="preserve" textLength="8.40" lengthAdjust="spacing">/</text>
<text x="616.40" y="711.10" fill="#d6deeb" xml:space="preserve" textLength="8.40" lengthAdjust="spacing" font-weight="bold">E</text>
<text x="624.80" y="711.10" fill="#d6deeb" xml:space="preserve" textLength="277.20" lengthAdjust="spacing"> to move forward/backward through</text>
<text x="910.40" y="711.10" fill="#ef5350" xml:space="preserve" textLength="42.00" lengthAdjust="spacing" font-weight="bold">error</text>
<text x="952.40" y="711.10" fill="#d6deeb" xml:space="preserve" textLength="75.60" lengthAdjust="spacing"> messages</text>
</g>
</svg>
